<svg width="38" height="38" viewBox="0 0 38 38" fill="none" xmlns="http://www.w3.org/2000/svg">
<path d="M19.0014 0C13.8412 0 13.1937 0.0225629 11.167 0.114792C9.14424 0.207417 7.76356 0.527646 6.55547 0.9975C5.30581 1.48279 4.24575 2.13196 3.18966 3.18844C2.13277 4.24452 1.4836 5.30456 0.996719 6.55381C0.525672 7.76229 0.205044 9.14336 0.114001 11.1653C0.0237503 13.1919 0 13.8399 0 19C0 24.1601 0.0229589 24.8057 0.114793 26.8324C0.207815 28.8551 0.528047 30.2357 0.997511 31.4438C1.4832 32.6935 2.13238 33.7535 3.18887 34.8096C4.24457 35.8665 5.30462 36.5172 6.55349 37.0025C7.76237 37.4724 9.14345 37.7926 11.1658 37.8852C13.1925 37.9774 13.8397 38 18.9994 38C24.1599 38 24.8056 37.9774 26.8322 37.8852C28.855 37.7926 30.2372 37.4724 31.4461 37.0025C32.6954 36.5172 33.7539 35.8665 34.8096 34.8096C35.8664 33.7535 36.5156 32.6935 37.0025 31.4442C37.4696 30.2357 37.7902 28.8547 37.8852 26.8328C37.9763 24.8061 38 24.1601 38 19C38 13.8399 37.9763 13.1923 37.8852 11.1657C37.7902 9.14296 37.4696 7.76229 37.0025 6.55421C36.5156 5.30456 35.8664 4.24452 34.8096 3.18844C33.7527 2.13156 32.6958 1.4824 31.4449 0.9975C30.2337 0.527646 28.8522 0.207417 26.8295 0.114792C24.8028 0.0225629 24.1576 0 18.9958 0H19.0014ZM17.2969 3.42396C17.8028 3.42317 18.3673 3.42396 19.0014 3.42396C24.0744 3.42396 24.6757 3.44217 26.6791 3.53321C28.5316 3.61792 29.537 3.92746 30.2068 4.18752C31.0934 4.5319 31.7256 4.94356 32.3902 5.60856C33.0552 6.27356 33.4669 6.9069 33.812 7.79356C34.0721 8.46252 34.382 9.46794 34.4664 11.3204C34.5574 13.3234 34.5772 13.925 34.5772 18.9956C34.5772 24.0663 34.5574 24.6679 34.4664 26.6709C34.3817 28.5234 34.0721 29.5288 33.812 30.1977C33.4677 31.0844 33.0552 31.7158 32.3902 32.3804C31.7252 33.0454 31.0938 33.457 30.2068 33.8014C29.5378 34.0626 28.5316 34.3714 26.6791 34.4561C24.6761 34.5471 24.0744 34.5669 19.0014 34.5669C13.9279 34.5669 13.3267 34.5471 11.3237 34.4561C9.4712 34.3706 8.46578 34.0611 7.79562 33.801C6.90895 33.4566 6.27561 33.045 5.6106 32.38C4.94559 31.715 4.53392 31.0832 4.18875 30.1961C3.92869 29.5272 3.61875 28.5218 3.53443 26.6693C3.44339 24.6664 3.42518 24.0647 3.42518 18.9909C3.42518 13.9171 3.44339 13.3186 3.53443 11.3157C3.61914 9.46319 3.92869 8.45777 4.18875 7.78802C4.53313 6.90135 4.94559 6.26802 5.6106 5.60302C6.27561 4.93802 6.90895 4.52635 7.79562 4.18119C8.46538 3.91994 9.4712 3.61119 11.3237 3.52608C13.0765 3.44692 13.7557 3.42317 17.2969 3.41921V3.42396Z" fill="white"/>
<path d="M29.1027 6.53208C28.6517 6.53208 28.2108 6.66582 27.8359 6.91638C27.4609 7.16695 27.1687 7.52308 26.9961 7.93974C26.8236 8.3564 26.7785 8.81488 26.8665 9.25718C26.9546 9.69947 27.1718 10.1057 27.4907 10.4246C27.8097 10.7434 28.216 10.9605 28.6583 11.0484C29.1007 11.1363 29.5591 11.091 29.9758 10.9183C30.3924 10.7456 30.7484 10.4533 30.9988 10.0782C31.2493 9.70315 31.3829 9.26226 31.3827 8.81129C31.3827 7.55254 30.3614 6.53208 29.1027 6.53208Z" fill="white"/>
<path fill-rule="evenodd" clip-rule="evenodd" d="M18.9605 9.19604C13.572 9.19604 9.20313 13.5648 9.20313 18.9533C9.20313 24.3418 13.572 28.7086 18.9605 28.7086C24.3491 28.7086 28.7167 24.3418 28.7167 18.9533C28.7167 13.5648 24.3491 9.19604 18.9605 9.19604ZM19 25.2344C22.4432 25.2344 25.2344 22.4432 25.2344 19C25.2344 15.5569 22.4432 12.7657 19 12.7657C15.5569 12.7657 12.7656 15.5569 12.7656 19C12.7656 22.4432 15.5569 25.2344 19 25.2344Z" fill="white"/>
</svg>
